<?xml version="1.0" encoding="UTF-8"?>
<!DOCTYPE svg PUBLIC "-//W3C//DTD SVG 1.1//EN" "http://www.w3.org/Graphics/SVG/1.1/DTD/svg11.dtd">
<!-- Creator: CorelDRAW X7 -->
<svg xmlns="http://www.w3.org/2000/svg" xml:space="preserve" width="300mm" height="300mm" version="1.1" style="shape-rendering:geometricPrecision; text-rendering:geometricPrecision; image-rendering:optimizeQuality; fill-rule:evenodd; clip-rule:evenodd"
viewBox="0 0 30000 30000"
 xmlns:xlink="http://www.w3.org/1999/xlink">
 <defs>
  <style type="text/css">
   <![CDATA[
    .str0 {stroke:black;stroke-width:20}
    .fil0 {fill:black}
    .fil1 {fill:white}
   ]]>
  </style>
 </defs>
 <g id="Layer_x0020_1">
  <metadata id="CorelCorpID_0Corel-Layer"/>
  <g id="_2289119961568">
   <path class="fil0" d="M2300 19536c-107,150 -264,239 -378,378 -103,126 -218,255 -324,385 -73,179 -202,350 -283,560 -76,196 -150,449 -176,667 -4,45 -6,96 -15,139 -25,120 8,36 -38,99 60,292 22,3456 21,4032 -3,1169 472,2017 1383,2631 928,626 2262,466 3549,466 4010,0 8020,0 12030,0 536,0 7689,-47 8018,21 52,-37 -21,-6 71,-31 45,-11 82,-15 127,-21 97,-12 152,-18 251,-36 218,-53 405,-107 603,-203 202,-98 357,-217 519,-291 105,-81 264,-225 356,-318 114,-115 234,-247 318,-356 71,-156 195,-324 293,-515 88,-172 150,-398 201,-607 18,-97 26,-154 37,-250 4,-38 9,-98 16,-134 24,-124 -13,-33 35,-100 -113,-547 54,-3368 -28,-4298 -60,-672 -249,-1134 -583,-1570 -251,-327 -468,-543 -818,-771 -81,-52 -265,-125 -314,-180 -123,-35 -553,-158 -626,-226 -188,20 -569,-40 -820,-39l-12707 0 -29 -9923 -1959 10 1 9913 -3968 0 0 -264 0 -529 0 -529 0 -529 0 -529 0 -530 0 -529 0 -529 0 -529 0 -529 0 -529 0 -530 0 -529 0 -529 0 -529 0 -529 0 -529 0 -530 0 -529 -4 -135 -1980 -6 -10 9930c-505,0 -1158,-40 -1623,69 -320,75 -636,198 -902,369 -98,63 -141,114 -244,130z"/>
   <path class="fil0" d="M21385 2189c-37,67 -540,439 -635,490 102,225 371,420 404,661 147,87 545,840 619,1041 84,77 458,972 491,1138l148 379c66,208 283,899 264,1104 85,96 97,332 120,484 31,205 91,430 57,644 45,63 22,-1 44,131 8,51 8,122 12,177l29 741c0,112 14,675 -50,767 34,187 -7,325 -18,503 -14,143 -13,361 -88,449 34,297 -395,1908 -515,2056l-302 789c-15,30 -45,91 -61,116 -57,82 -16,34 -74,83 -4,158 -175,424 -263,571 -99,165 -214,393 -315,522 -106,181 -455,620 -491,751 50,49 111,77 194,138l1370 1029c17,-27 256,-320 298,-362l945 -1591c64,-203 198,-444 290,-667 92,-225 186,-423 264,-652l453 -1352c-16,-167 53,-382 91,-539 162,-1051 264,-1804 246,-2928 -8,-484 -52,-994 -124,-1465 -70,-466 -199,-934 -260,-1357 -55,-110 -309,-958 -306,-1068 -120,-112 -182,-385 -226,-555 -61,-70 -190,-417 -245,-532 -79,-167 -222,-362 -231,-543 -138,-112 -233,-344 -313,-502 -99,-194 -228,-354 -300,-540 -40,-34 -510,-710 -537,-769 -173,7 -345,207 -490,313 -172,127 -318,259 -495,345z"/>
   <path class="fil0" d="M16432 7062c129,108 257,506 307,662 208,642 403,2149 116,2469 28,224 -253,1044 -380,1147 -74,289 -434,743 -494,880 161,74 1283,965 1601,1153 106,-179 232,-317 344,-527 60,-114 240,-449 334,-527 12,-165 147,-368 219,-543 69,-166 143,-365 187,-551 419,-1191 333,-2369 109,-3598 -52,-201 -109,-402 -178,-598 -65,-184 -166,-392 -207,-575l-208 -441 -597 -929c-111,33 -699,494 -828,596 -136,108 -253,202 -398,306l-370 300c107,170 428,570 443,776z"/>
  </g>
  <rect class="fil1 str0" x="4500" y="22500" width="3000" height="3000"/>
  <rect class="fil1 str0" x="9500" y="22500" width="3000" height="3000"/>
  <rect class="fil1 str0" x="14040" y="22500" width="3000" height="3000"/>
 </g>
</svg>
