<?xml version="1.0" encoding="UTF-8"?>
<!DOCTYPE svg PUBLIC "-//W3C//DTD SVG 1.1//EN" "http://www.w3.org/Graphics/SVG/1.1/DTD/svg11.dtd">
<!-- Creator: CorelDRAW X7 -->
<svg xmlns="http://www.w3.org/2000/svg" xml:space="preserve" width="300mm" height="300mm" version="1.1" style="shape-rendering:geometricPrecision; text-rendering:geometricPrecision; image-rendering:optimizeQuality; fill-rule:evenodd; clip-rule:evenodd"
viewBox="0 0 30000 30000"
 xmlns:xlink="http://www.w3.org/1999/xlink">
 <defs>
  <style type="text/css">
   <![CDATA[
    .fil0 {fill:black}
    .fil1 {fill:#747474}
   ]]>
  </style>
 </defs>
 <g id="Layer_x0020_1">
  <metadata id="CorelCorpID_0Corel-Layer"/>
  <g id="_2289112379552">
   <path class="fil0" d="M9265 6992c132,119 7429,3299 8148,3628 674,308 1352,596 2031,895 322,142 6113,2729 6181,2718l1323 -1050c239,-193 1191,-926 1321,-1076 -123,-109 -1026,-485 -1253,-580l-3816 -1685c-1718,-773 -3396,-1485 -5087,-2252 -844,-382 -1700,-725 -2545,-1124 -1306,-617 -3075,-1365 -4452,-1970 -759,-334 -756,-26 -1302,1220 -153,348 -453,942 -549,1276z"/>
   <path class="fil0" d="M19028 16322c99,-136 321,-696 401,-885 203,-486 1141,-2487 1209,-2784 -214,-55 -497,-210 -721,-306 -265,-114 -475,-212 -735,-323 -2388,-1024 -4846,-2156 -7241,-3203 -479,-210 -949,-427 -1443,-637 -292,-124 -1290,-599 -1500,-644 -93,296 -276,641 -405,941l-822 1861c-147,329 -389,723 -31,989 138,102 720,329 920,419l10368 4572z"/>
   <path class="fil0" d="M9572 18730c-71,91 -1115,40 -1233,40 -1132,0 -2914,-48 -3904,5l3 2071 6800 4c283,-20 375,-337 485,-595l1040 -2350c113,-258 1322,-2924 1360,-3121l-1923 -846 -1706 3852c-195,444 -380,906 -922,940z"/>
   <path class="fil0" d="M1731 25629c1044,-70 1859,-949 2057,-1883 110,-518 51,-4987 51,-5888 0,-528 52,-1476 -45,-1947 -194,-943 -1007,-1830 -2061,-1912l-2 11630z"/>
   <path class="fil0" d="M20050 15494c866,602 2407,364 3179,-526 181,-209 489,-575 514,-920l-2558 -1139c-90,127 -1109,2443 -1135,2585z"/>
   <path class="fil1" d="M11238 20850l-6800 -4 -3 -2071c990,-53 2772,-5 3904,-5 118,0 1162,51 1233,-40 -639,16 -4965,-34 -5163,30l-11 2112c235,58 5489,20 6410,20l406 -27c7,-2 16,-10 24,-15z"/>
  </g>
 </g>
</svg>
