<?xml version="1.0" encoding="UTF-8"?>
<!DOCTYPE svg PUBLIC "-//W3C//DTD SVG 1.1//EN" "http://www.w3.org/Graphics/SVG/1.1/DTD/svg11.dtd">
<!-- Creator: CorelDRAW X7 -->
<svg xmlns="http://www.w3.org/2000/svg" xml:space="preserve" width="300mm" height="300mm" version="1.1" style="shape-rendering:geometricPrecision; text-rendering:geometricPrecision; image-rendering:optimizeQuality; fill-rule:evenodd; clip-rule:evenodd"
viewBox="0 0 30000 30000"
 xmlns:xlink="http://www.w3.org/1999/xlink">
 <defs>
  <style type="text/css">
   <![CDATA[
    .fil2 {fill:black}
    .fil0 {fill:#231F20}
    .fil1 {fill:white}
   ]]>
  </style>
 </defs>
 <g id="Layer_x0020_1">
  <metadata id="CorelCorpID_0Corel-Layer"/>
  <g id="_2289114734352">
   <g>
    <path class="fil0" d="M10841 18864l-107 1103c-705,167 -1897,-319 -2373,810 -67,159 -230,662 -247,807l7375 8c-39,-413 -300,-1101 -714,-1379 -528,-355 -1224,-150 -1891,-225l-134 -1120c948,-60 2074,-6 3034,-6 755,0 2292,134 2843,-200 812,-491 607,-1542 607,-2422l0 -6103c0,-545 17,-872 -273,-1236 -213,-267 -541,-495 -1060,-509 -2001,-57 -4092,0 -6103,0 -2015,0 -4057,-34 -6068,-1 -530,9 -814,206 -1061,475 -282,309 -301,699 -301,1201l0 6103c0,1035 -170,1981 584,2473 380,247 798,219 1307,219l4582 2z"/>
    <path class="fil1" d="M6003 9448c-798,132 -598,1063 -598,1959 0,859 0,1717 0,2575 0,797 -55,1808 4,2577 67,872 1117,663 1909,663 265,0 9997,32 10290,-10 345,-50 569,-310 588,-688 21,-402 1,-863 1,-1272 0,-858 0,-1716 0,-2575 0,-799 54,-1803 -2,-2577 -64,-870 -1117,-664 -1917,-664 -257,0 -9993,-35 -10275,12z"/>
    <path class="fil0" d="M20725 8429c-360,72 -441,323 -438,720l0 11607c0,171 -21,379 40,538 48,126 171,250 307,295 160,52 4414,63 4633,9 332,-83 383,-358 381,-736l0 -11607c1,-414 -19,-692 -347,-805 -134,-47 -4335,-70 -4576,-21z"/>
    <polygon class="fil1" points="21327,20571 24603,20575 24611,9463 21325,9461 "/>
    <path class="fil0" d="M22694 16503c-536,137 -1015,705 -820,1412 140,505 694,973 1383,790 1442,-383 878,-2569 -563,-2202z"/>
    <path class="fil0" d="M22171 13896c-388,103 -410,686 173,688 282,1 1227,35 1438,-13 334,-75 431,-683 -200,-685 -233,-1 -1269,-27 -1411,10z"/>
    <path class="fil0" d="M22105 12704c-155,82 -282,236 -177,460 89,191 285,204 523,203 261,-1 1219,33 1393,-38 191,-79 477,-669 -369,-664 -250,2 -1222,-39 -1370,39z"/>
    <path class="fil0" d="M22138 11466c-324,107 -422,677 241,675 239,-1 1283,25 1423,-18 166,-52 284,-240 217,-448 -61,-192 -239,-231 -472,-232 -242,0 -1262,-26 -1409,23z"/>
    <path class="fil0" d="M22346 10920l1235 -1c642,0 596,-698 35,-698l-1270 0c-620,0 -605,699 0,699z"/>
    <path class="fil1" d="M22775 17221c-536,309 -108,1010 384,782 532,-245 119,-1072 -384,-782z"/>
    <path class="fil1" d="M11711 17700c-423,115 -291,804 183,690 449,-108 275,-815 -183,-690z"/>
   </g>
   <g>
    <path class="fil2" d="M11325 10732c-48,175 39,541 -46,689 -50,89 -105,94 -217,141 -68,28 -194,87 -262,25 -140,-49 -392,-422 -515,-449 -135,-30 -170,53 -325,208 -155,154 -238,190 -208,325 17,79 181,216 235,270 73,73 197,160 228,288 24,99 -34,191 -68,275 -36,88 -77,152 -161,183 -146,52 -520,-28 -673,36 -37,29 -59,61 -85,97l0 562c19,26 20,35 43,62 41,48 23,65 36,39 2,-3 6,6 8,8 122,1 276,10 413,10 290,0 370,1 474,355 46,158 -36,225 -104,295l-319 323c-111,154 55,256 124,325 44,44 222,240 268,260 215,92 415,-361 615,-430 69,-74 233,14 301,43 281,120 229,183 228,602 -1,195 -9,219 118,314l564 0c95,-69 119,-71 119,-228 -1,-110 -1,-220 -1,-329 -1,-343 94,-268 278,-386l-229 -248c-143,23 -230,61 -397,69 -483,22 -912,-219 -1172,-588 -656,-932 131,-2330 1381,-2096 157,29 495,152 597,295 40,7 -2,-16 43,22 1,1 25,27 28,30 77,83 112,104 181,205 285,415 279,753 179,1211l61 59c25,26 8,6 20,34 30,12 11,2 39,26 16,14 27,27 43,43 30,30 52,49 75,81 102,-94 0,-289 388,-287 115,1 230,0 344,0 160,1 157,-23 228,-118l0 -564c-47,-63 -68,-111 -171,-118 -292,-21 -601,72 -717,-127 -61,-105 -150,-300 -75,-422 29,-46 239,-255 285,-279 8,-21 -2,-2 13,-24l48 -51c32,-32 43,-47 80,-70 16,-98 50,-151 -35,-228 -242,-220 -370,-459 -542,-335l-308 305c-64,66 -147,171 -298,136 -62,-14 -264,-102 -296,-134 -83,-87 -71,-210 -71,-358 0,-132 -11,-299 -8,-415 -41,-25 -73,-57 -111,-86l-562 0c-49,40 -85,46 -109,119z"/>
    <path class="fil2" d="M11903 12593c6,4 7,2 21,15 37,34 65,99 79,150 66,74 25,267 -13,345 -50,103 -119,173 -204,235l-128 64c-86,14 -255,33 -315,-28 -41,-13 -51,-14 -90,-41 -17,-12 -12,-7 -29,-26 -14,-15 -8,-9 -15,-22 -94,-34 -196,-199 -317,-305 -35,-30 -56,-78 -102,-89 -83,66 -52,344 -27,461 107,502 644,922 1268,736 197,-59 233,30 329,126 93,93 175,169 271,259l254 266c111,44 442,470 606,531 236,87 485,-159 440,-381 -18,-88 -77,-136 -92,-190 -60,-31 -521,-496 -643,-606l-200 -200c-244,-223 -356,-266 -293,-475 120,-395 -25,-576 -26,-701l-50 -71c-75,-137 -248,-327 -372,-379 -242,-163 -449,-144 -746,-97 97,148 351,322 394,423z"/>
   </g>
  </g>
 </g>
</svg>
