<?xml version="1.0" encoding="UTF-8"?>
<!DOCTYPE svg PUBLIC "-//W3C//DTD SVG 1.1//EN" "http://www.w3.org/Graphics/SVG/1.1/DTD/svg11.dtd">
<!-- Creator: CorelDRAW X7 -->
<svg xmlns="http://www.w3.org/2000/svg" xml:space="preserve" width="300mm" height="300mm" version="1.1" style="shape-rendering:geometricPrecision; text-rendering:geometricPrecision; image-rendering:optimizeQuality; fill-rule:evenodd; clip-rule:evenodd"
viewBox="0 0 30000 30000"
 xmlns:xlink="http://www.w3.org/1999/xlink">
 <defs>
  <style type="text/css">
   <![CDATA[
    .fil0 {fill:#231F20}
    .fil1 {fill:white}
    .fil2 {fill:white}
   ]]>
  </style>
 </defs>
 <g id="Layer_x0020_1">
  <metadata id="CorelCorpID_0Corel-Layer"/>
  <g id="_2289112387392">
   <path class="fil0" d="M10833 18858l-107 1103c-705,167 -1897,-319 -2373,811 -67,158 -230,661 -247,806l7375 8c-39,-412 -300,-1101 -714,-1379 -528,-355 -1224,-150 -1891,-224l-134 -1120c948,-60 2074,-7 3034,-7 755,0 2292,134 2843,-199 812,-491 607,-1543 607,-2422l0 -6103c0,-546 17,-873 -273,-1237 -213,-267 -541,-494 -1060,-509 -2001,-56 -4092,0 -6103,0 -2015,0 -4057,-33 -6068,0 -530,8 -815,205 -1061,474 -282,309 -301,699 -301,1201l0 6103c0,1035 -170,1981 584,2473 379,248 798,219 1307,219l4582 2z"/>
   <path class="fil1" d="M5994 9442c-797,132 -597,1063 -597,1960 0,858 0,1717 0,2575 0,796 -55,1807 4,2577 66,872 1117,662 1908,662 266,0 9998,33 10291,-10 345,-50 569,-309 588,-687 21,-403 1,-863 1,-1272 0,-858 0,-1717 0,-2575 0,-799 54,-1804 -2,-2577 -64,-870 -1117,-665 -1917,-665 -257,0 -9993,-35 -10276,12z"/>
   <path class="fil0" d="M20717 8423c-360,72 -441,324 -438,721l0 11606c0,171 -21,380 40,538 48,126 171,251 307,295 160,52 4414,64 4633,9 331,-83 383,-357 381,-735l0 -11607c1,-415 -20,-692 -347,-806 -134,-46 -4335,-69 -4576,-21z"/>
   <polygon class="fil1" points="21319,20565 24595,20570 24603,9458 21317,9455 "/>
   <path class="fil0" d="M22686 16498c-536,136 -1015,704 -820,1412 139,504 694,973 1383,790 1442,-383 878,-2570 -563,-2202z"/>
   <path class="fil0" d="M22163 13891c-388,102 -410,686 173,688 282,1 1227,34 1438,-13 333,-75 431,-683 -200,-686 -233,-1 -1269,-27 -1411,11z"/>
   <path class="fil0" d="M22097 12699c-155,82 -282,235 -177,459 89,192 285,204 523,203 261,-1 1219,34 1392,-38 192,-78 478,-669 -368,-663 -250,1 -1222,-40 -1370,39z"/>
   <path class="fil0" d="M22130 11460c-324,107 -422,678 241,675 239,-1 1283,26 1423,-18 166,-52 284,-240 217,-448 -61,-192 -239,-231 -472,-231 -242,-1 -1263,-26 -1409,22z"/>
   <path class="fil0" d="M22338 10914l1235 0c642,-1 596,-698 35,-698l-1270 0c-620,0 -605,698 0,698z"/>
   <path class="fil1" d="M22767 17215c-536,310 -108,1010 384,783 532,-246 119,-1073 -384,-783z"/>
   <path class="fil2" d="M11703 17695c-423,115 -291,803 183,690 449,-108 275,-815 -183,-690z"/>
  </g>
 </g>
</svg>
